<svg xmlns="http://www.w3.org/2000/svg" viewBox="0 0 32 32" width="32" height="32">
  <defs>
    <linearGradient id="dbGrad" x1="0%" y1="0%" x2="100%" y2="100%">
      <stop offset="0%" stop-color="#8b5cf6" />
      <stop offset="100%" stop-color="#6366f1" />
    </linearGradient>
  </defs>
  <!-- Premium Database Cylinder SVG -->
  <path d="M6 8C6 4.686 10.477 2 16 2S26 4.686 26 8s-4.477 6-10 6S6 11.314 6 8z" fill="url(#dbGrad)" />
  <path d="M6 8v6c0 3.314 4.477 6 10 6s10-2.686 10-6V8c0 3.314-4.477 6-10 6S6 11.314 6 8z" fill="url(#dbGrad)" opacity="0.8" />
  <path d="M6 14v6c0 3.314 4.477 6 10 6s10-2.686 10-6v-6c0 3.314-4.477 6-10 6S6 17.314 6 14z" fill="url(#dbGrad)" opacity="0.6" />
</svg>
